<?xml version="1.0" encoding="utf-8"?>
<!-- Generator: Adobe Illustrator 23.0.4, SVG Export Plug-In . SVG Version: 6.00 Build 0)  -->
<svg version="1.1" id="Layer_1" xmlns="http://www.w3.org/2000/svg" xmlns:xlink="http://www.w3.org/1999/xlink" x="0px" y="0px"
	 viewBox="0 0 256 64" style="enable-background:new 0 0 256 64;" xml:space="preserve">
<style type="text/css">
	.st0{fill:#282828;}
</style>
<polygon class="st0" points="5.7,3.5 58.9,3.5 28.5,49.5 55.7,49.5 55.7,62.2 0.2,62.2 30.8,15.9 5.6,15.9 "/>
<path class="st0" d="M70.9,10.2c-13.3,0-24.1,9.6-24.1,21.4C46.8,43.4,57.6,53,70.9,53c13.3,0,24.1-9.6,24.1-21.4
	C95.1,19.8,84.3,10.2,70.9,10.2z M70.9,41c-5.2,0-9.4-4.2-9.4-9.4s4.2-9.4,9.4-9.4c5.2,0,9.4,4.2,9.4,9.4S76.1,41,70.9,41z"/>
<path class="st0" d="M245.7,22.2c-1.4-0.4-2.8-0.7-4.4-0.7c-5.2,0-9.7,2.7-12.3,6.8c-0.1,0.2-0.2,0.4-0.3,0.6
	c-2.3-3.3-5.7-5.7-9.7-6.7c-1.4-0.3-2.8-0.5-4.3-0.5c-4.9,0-9.3,2.1-12.5,5.4v-4.8h-14.4v16c-2.3-9.7-12-17-23.6-17
	c-13.3,0-24.1,9.6-24.1,21.4c0,0.4,0,0.7,0,1.1C137.3,47,133,49,128.2,49c-8.8,0-16-7.1-16-16s7.1-16,16-16c5.4,0,10.3,2.7,13.1,6.9
	V4.9c-4-1.8-8.5-2.7-13.1-2.7c-17.5,0-31.8,13.7-31.8,30.6s14.2,30.6,31.8,30.6c4.7,0,9.1-1,13.1-2.7V49.3
	c3.2,8.5,12.2,14.7,22.9,14.7c11.6,0,21.3-7.3,23.6-17v15.3h14.4V39c0-3.4,2.8-6.2,6.2-6.2c3.4,0,6.2,2.8,6.2,6.2v23.3h14.4V39
	c0-1.9,0.9-3.6,2.2-4.7c1.1-0.9,2.5-1.5,4-1.5c3.4,0,6.2,2.8,6.2,6.2v23.3h14.4V36C255.8,29.5,251.6,24,245.7,22.2z M164.3,52
	c-5.2,0-9.4-4.2-9.4-9.4c0-5.2,4.2-9.4,9.4-9.4s9.4,4.2,9.4,9.4C173.7,47.8,169.5,52,164.3,52z"/>
</svg>
